    <svg xmlns="http://www.w3.org/2000/svg" width="13" height="14" viewBox="0 0 13 14" fill="none">
    <g clip-path="url(#clip0_3163_8362)">
        <path d="M7.92972 1.86172C6.11508 0.0470712 3.1733 0.0470712 1.36196 1.86172C-0.452685 3.67636 -0.452685 6.61483 1.36196 8.42948C3.00473 10.0722 5.56638 10.221 7.38434 8.88892L11.1194 13.176C11.5491 13.6057 12.2498 13.6057 12.6795 13.176C13.1092 12.7463 13.1092 12.0455 12.6795 11.6158L8.42222 7.84112C9.72123 6.02648 9.55927 3.49126 7.92972 1.86172ZM7.04388 7.54364C5.71843 8.86909 3.57325 8.86909 2.2478 7.54364C0.922347 6.21819 0.922347 4.07301 2.2478 2.74755C3.57325 1.4221 5.71843 1.4221 7.04388 2.74755C8.36933 4.07301 8.36933 6.21819 7.04388 7.54364Z" fill="#FF5F05"/>
    </g>
    <defs>
        <clipPath id="clip0_3163_8362">
        <rect width="13" height="13" fill="white" transform="translate(0 0.5)"/>
        </clipPath>
    </defs>
    </svg>